G04 #@! TF.FileFunction,Legend,Top*
%FSLAX46Y46*%
G04 Gerber Fmt 4.6, Leading zero omitted, Abs format (unit mm)*
G04 Created by KiCad (PCBNEW 4.0.5) date Sat Feb 25 16:09:27 2017*
%MOMM*%
%LPD*%
G01*
G04 APERTURE LIST*
%ADD10C,0.100000*%
%ADD11C,0.203200*%
%ADD12C,0.120000*%
%ADD13C,0.150000*%
%ADD14R,2.000000X2.400000*%
%ADD15R,1.600000X1.600000*%
%ADD16R,1.700000X1.900000*%
%ADD17R,1.950000X1.000000*%
G04 APERTURE END LIST*
D10*
D11*
X111336667Y-83290229D02*
X111481810Y-83338610D01*
X111530191Y-83386990D01*
X111578572Y-83483752D01*
X111578572Y-83628895D01*
X111530191Y-83725657D01*
X111481810Y-83774038D01*
X111385048Y-83822419D01*
X110998001Y-83822419D01*
X110998001Y-82806419D01*
X111336667Y-82806419D01*
X111433429Y-82854800D01*
X111481810Y-82903181D01*
X111530191Y-82999943D01*
X111530191Y-83096705D01*
X111481810Y-83193467D01*
X111433429Y-83241848D01*
X111336667Y-83290229D01*
X110998001Y-83290229D01*
X112159144Y-83822419D02*
X112062382Y-83774038D01*
X112014001Y-83677276D01*
X112014001Y-82806419D01*
X112546191Y-83822419D02*
X112546191Y-83145086D01*
X112546191Y-82806419D02*
X112497810Y-82854800D01*
X112546191Y-82903181D01*
X112594572Y-82854800D01*
X112546191Y-82806419D01*
X112546191Y-82903181D01*
X113030001Y-83145086D02*
X113030001Y-83822419D01*
X113030001Y-83241848D02*
X113078382Y-83193467D01*
X113175144Y-83145086D01*
X113320286Y-83145086D01*
X113417048Y-83193467D01*
X113465429Y-83290229D01*
X113465429Y-83822419D01*
X113949239Y-83822419D02*
X113949239Y-82806419D01*
X114046001Y-83435371D02*
X114336286Y-83822419D01*
X114336286Y-83145086D02*
X113949239Y-83532133D01*
X114674953Y-83145086D02*
X114916858Y-83822419D01*
X115158762Y-83145086D02*
X114916858Y-83822419D01*
X114820096Y-84064324D01*
X114771715Y-84112705D01*
X114674953Y-84161086D01*
X109377238Y-85017429D02*
X109522381Y-85065810D01*
X109570762Y-85114190D01*
X109619143Y-85210952D01*
X109619143Y-85356095D01*
X109570762Y-85452857D01*
X109522381Y-85501238D01*
X109425619Y-85549619D01*
X109038572Y-85549619D01*
X109038572Y-84533619D01*
X109377238Y-84533619D01*
X109474000Y-84582000D01*
X109522381Y-84630381D01*
X109570762Y-84727143D01*
X109570762Y-84823905D01*
X109522381Y-84920667D01*
X109474000Y-84969048D01*
X109377238Y-85017429D01*
X109038572Y-85017429D01*
X109957810Y-84872286D02*
X110199715Y-85549619D01*
X110441619Y-84872286D02*
X110199715Y-85549619D01*
X110102953Y-85791524D01*
X110054572Y-85839905D01*
X109957810Y-85888286D01*
X111602762Y-85017429D02*
X111941428Y-85017429D01*
X112086571Y-85549619D02*
X111602762Y-85549619D01*
X111602762Y-84533619D01*
X112086571Y-84533619D01*
X112522000Y-84872286D02*
X112522000Y-85549619D01*
X112522000Y-84969048D02*
X112570381Y-84920667D01*
X112667143Y-84872286D01*
X112812285Y-84872286D01*
X112909047Y-84920667D01*
X112957428Y-85017429D01*
X112957428Y-85549619D01*
X114166952Y-85501238D02*
X114312095Y-85549619D01*
X114553999Y-85549619D01*
X114650761Y-85501238D01*
X114699142Y-85452857D01*
X114747523Y-85356095D01*
X114747523Y-85259333D01*
X114699142Y-85162571D01*
X114650761Y-85114190D01*
X114553999Y-85065810D01*
X114360476Y-85017429D01*
X114263714Y-84969048D01*
X114215333Y-84920667D01*
X114166952Y-84823905D01*
X114166952Y-84727143D01*
X114215333Y-84630381D01*
X114263714Y-84582000D01*
X114360476Y-84533619D01*
X114602380Y-84533619D01*
X114747523Y-84582000D01*
X115182952Y-85549619D02*
X115182952Y-84533619D01*
X115618380Y-85549619D02*
X115618380Y-85017429D01*
X115569999Y-84920667D01*
X115473237Y-84872286D01*
X115328095Y-84872286D01*
X115231333Y-84920667D01*
X115182952Y-84969048D01*
X116102190Y-85549619D02*
X116102190Y-84872286D01*
X116102190Y-84533619D02*
X116053809Y-84582000D01*
X116102190Y-84630381D01*
X116150571Y-84582000D01*
X116102190Y-84533619D01*
X116102190Y-84630381D01*
X116586000Y-85549619D02*
X116586000Y-84533619D01*
X117021428Y-85549619D02*
X117021428Y-85017429D01*
X116973047Y-84920667D01*
X116876285Y-84872286D01*
X116731143Y-84872286D01*
X116634381Y-84920667D01*
X116586000Y-84969048D01*
X108772477Y-86357581D02*
X108820858Y-86309200D01*
X108917620Y-86260819D01*
X109159524Y-86260819D01*
X109256286Y-86309200D01*
X109304667Y-86357581D01*
X109353048Y-86454343D01*
X109353048Y-86551105D01*
X109304667Y-86696248D01*
X108724096Y-87276819D01*
X109353048Y-87276819D01*
X109982001Y-86260819D02*
X110078762Y-86260819D01*
X110175524Y-86309200D01*
X110223905Y-86357581D01*
X110272286Y-86454343D01*
X110320667Y-86647867D01*
X110320667Y-86889771D01*
X110272286Y-87083295D01*
X110223905Y-87180057D01*
X110175524Y-87228438D01*
X110078762Y-87276819D01*
X109982001Y-87276819D01*
X109885239Y-87228438D01*
X109836858Y-87180057D01*
X109788477Y-87083295D01*
X109740096Y-86889771D01*
X109740096Y-86647867D01*
X109788477Y-86454343D01*
X109836858Y-86357581D01*
X109885239Y-86309200D01*
X109982001Y-86260819D01*
X111288286Y-87276819D02*
X110707715Y-87276819D01*
X110998001Y-87276819D02*
X110998001Y-86260819D01*
X110901239Y-86405962D01*
X110804477Y-86502724D01*
X110707715Y-86551105D01*
X111626953Y-86260819D02*
X112304286Y-86260819D01*
X111868858Y-87276819D01*
X113417048Y-86212438D02*
X112546191Y-87518724D01*
X113707334Y-86357581D02*
X113755715Y-86309200D01*
X113852477Y-86260819D01*
X114094381Y-86260819D01*
X114191143Y-86309200D01*
X114239524Y-86357581D01*
X114287905Y-86454343D01*
X114287905Y-86551105D01*
X114239524Y-86696248D01*
X113658953Y-87276819D01*
X114287905Y-87276819D01*
X115449048Y-86212438D02*
X114578191Y-87518724D01*
X115739334Y-86357581D02*
X115787715Y-86309200D01*
X115884477Y-86260819D01*
X116126381Y-86260819D01*
X116223143Y-86309200D01*
X116271524Y-86357581D01*
X116319905Y-86454343D01*
X116319905Y-86551105D01*
X116271524Y-86696248D01*
X115690953Y-87276819D01*
X116319905Y-87276819D01*
X117239143Y-86260819D02*
X116755334Y-86260819D01*
X116706953Y-86744629D01*
X116755334Y-86696248D01*
X116852096Y-86647867D01*
X117094000Y-86647867D01*
X117190762Y-86696248D01*
X117239143Y-86744629D01*
X117287524Y-86841390D01*
X117287524Y-87083295D01*
X117239143Y-87180057D01*
X117190762Y-87228438D01*
X117094000Y-87276819D01*
X116852096Y-87276819D01*
X116755334Y-87228438D01*
X116706953Y-87180057D01*
D12*
X133100000Y-100695000D02*
X133100000Y-98695000D01*
X131060000Y-98695000D02*
X131060000Y-100695000D01*
X115505000Y-101495000D02*
X116905000Y-101495000D01*
X116905000Y-101495000D02*
X116905000Y-98695000D01*
X115505000Y-101495000D02*
X115505000Y-98695000D01*
X131200000Y-86960000D02*
X131200000Y-85760000D01*
X132960000Y-85760000D02*
X132960000Y-86960000D01*
X131200000Y-93310000D02*
X131200000Y-92110000D01*
X132960000Y-92110000D02*
X132960000Y-93310000D01*
X115325000Y-93310000D02*
X115325000Y-92110000D01*
X117085000Y-92110000D02*
X117085000Y-93310000D01*
D13*
X121750000Y-86325000D02*
X121750000Y-86375000D01*
X125900000Y-86325000D02*
X125900000Y-86470000D01*
X125900000Y-91475000D02*
X125900000Y-91330000D01*
X121750000Y-91475000D02*
X121750000Y-91330000D01*
X121750000Y-86325000D02*
X125900000Y-86325000D01*
X121750000Y-91475000D02*
X125900000Y-91475000D01*
X121750000Y-86375000D02*
X120350000Y-86375000D01*
X134453334Y-100052143D02*
X134405715Y-100099762D01*
X134262858Y-100147381D01*
X134167620Y-100147381D01*
X134024762Y-100099762D01*
X133929524Y-100004524D01*
X133881905Y-99909286D01*
X133834286Y-99718810D01*
X133834286Y-99575952D01*
X133881905Y-99385476D01*
X133929524Y-99290238D01*
X134024762Y-99195000D01*
X134167620Y-99147381D01*
X134262858Y-99147381D01*
X134405715Y-99195000D01*
X134453334Y-99242619D01*
X135405715Y-100147381D02*
X134834286Y-100147381D01*
X135120000Y-100147381D02*
X135120000Y-99147381D01*
X135024762Y-99290238D01*
X134929524Y-99385476D01*
X134834286Y-99433095D01*
X118006905Y-100147381D02*
X118006905Y-99147381D01*
X118245000Y-99147381D01*
X118387858Y-99195000D01*
X118483096Y-99290238D01*
X118530715Y-99385476D01*
X118578334Y-99575952D01*
X118578334Y-99718810D01*
X118530715Y-99909286D01*
X118483096Y-100004524D01*
X118387858Y-100099762D01*
X118245000Y-100147381D01*
X118006905Y-100147381D01*
X119530715Y-100147381D02*
X118959286Y-100147381D01*
X119245000Y-100147381D02*
X119245000Y-99147381D01*
X119149762Y-99290238D01*
X119054524Y-99385476D01*
X118959286Y-99433095D01*
X134453334Y-86812381D02*
X134120000Y-86336190D01*
X133881905Y-86812381D02*
X133881905Y-85812381D01*
X134262858Y-85812381D01*
X134358096Y-85860000D01*
X134405715Y-85907619D01*
X134453334Y-86002857D01*
X134453334Y-86145714D01*
X134405715Y-86240952D01*
X134358096Y-86288571D01*
X134262858Y-86336190D01*
X133881905Y-86336190D01*
X135405715Y-86812381D02*
X134834286Y-86812381D01*
X135120000Y-86812381D02*
X135120000Y-85812381D01*
X135024762Y-85955238D01*
X134929524Y-86050476D01*
X134834286Y-86098095D01*
X134453334Y-93162381D02*
X134120000Y-92686190D01*
X133881905Y-93162381D02*
X133881905Y-92162381D01*
X134262858Y-92162381D01*
X134358096Y-92210000D01*
X134405715Y-92257619D01*
X134453334Y-92352857D01*
X134453334Y-92495714D01*
X134405715Y-92590952D01*
X134358096Y-92638571D01*
X134262858Y-92686190D01*
X133881905Y-92686190D01*
X134834286Y-92257619D02*
X134881905Y-92210000D01*
X134977143Y-92162381D01*
X135215239Y-92162381D01*
X135310477Y-92210000D01*
X135358096Y-92257619D01*
X135405715Y-92352857D01*
X135405715Y-92448095D01*
X135358096Y-92590952D01*
X134786667Y-93162381D01*
X135405715Y-93162381D01*
X118578334Y-94432381D02*
X118245000Y-93956190D01*
X118006905Y-94432381D02*
X118006905Y-93432381D01*
X118387858Y-93432381D01*
X118483096Y-93480000D01*
X118530715Y-93527619D01*
X118578334Y-93622857D01*
X118578334Y-93765714D01*
X118530715Y-93860952D01*
X118483096Y-93908571D01*
X118387858Y-93956190D01*
X118006905Y-93956190D01*
X118911667Y-93432381D02*
X119530715Y-93432381D01*
X119197381Y-93813333D01*
X119340239Y-93813333D01*
X119435477Y-93860952D01*
X119483096Y-93908571D01*
X119530715Y-94003810D01*
X119530715Y-94241905D01*
X119483096Y-94337143D01*
X119435477Y-94384762D01*
X119340239Y-94432381D01*
X119054524Y-94432381D01*
X118959286Y-94384762D01*
X118911667Y-94337143D01*
X123063095Y-84542381D02*
X123063095Y-85351905D01*
X123110714Y-85447143D01*
X123158333Y-85494762D01*
X123253571Y-85542381D01*
X123444048Y-85542381D01*
X123539286Y-85494762D01*
X123586905Y-85447143D01*
X123634524Y-85351905D01*
X123634524Y-84542381D01*
X124634524Y-85542381D02*
X124063095Y-85542381D01*
X124348809Y-85542381D02*
X124348809Y-84542381D01*
X124253571Y-84685238D01*
X124158333Y-84780476D01*
X124063095Y-84828095D01*
%LPC*%
D14*
X132080000Y-97695000D03*
X132080000Y-101695000D03*
D15*
X116205000Y-98595000D03*
X116205000Y-100795000D03*
D16*
X132080000Y-85010000D03*
X132080000Y-87710000D03*
X132080000Y-91360000D03*
X132080000Y-94060000D03*
X116205000Y-91360000D03*
X116205000Y-94060000D03*
D17*
X121125000Y-86995000D03*
X121125000Y-88265000D03*
X121125000Y-89535000D03*
X121125000Y-90805000D03*
X126525000Y-90805000D03*
X126525000Y-89535000D03*
X126525000Y-88265000D03*
X126525000Y-86995000D03*
M02*
