G04 #@! TF.FileFunction,Legend,Bot*
%FSLAX46Y46*%
G04 Gerber Fmt 4.6, Leading zero omitted, Abs format (unit mm)*
G04 Created by KiCad (PCBNEW 4.0.5) date Sat Feb 25 16:09:27 2017*
%MOMM*%
%LPD*%
G01*
G04 APERTURE LIST*
%ADD10C,0.100000*%
%ADD11C,0.150000*%
%ADD12R,4.400000X4.400000*%
%ADD13R,5.900000X5.900000*%
G04 APERTURE END LIST*
D10*
D11*
X134375000Y-83080000D02*
X134375000Y-103080000D01*
X113275000Y-103080000D02*
X113275000Y-83080000D01*
X134375000Y-103080000D02*
X113275000Y-103080000D01*
X134375000Y-83080000D02*
X113275000Y-83080000D01*
X111910714Y-84383571D02*
X111767857Y-84431190D01*
X111720238Y-84478810D01*
X111672619Y-84574048D01*
X111672619Y-84716905D01*
X111720238Y-84812143D01*
X111767857Y-84859762D01*
X111863095Y-84907381D01*
X112244048Y-84907381D01*
X112244048Y-83907381D01*
X111910714Y-83907381D01*
X111815476Y-83955000D01*
X111767857Y-84002619D01*
X111720238Y-84097857D01*
X111720238Y-84193095D01*
X111767857Y-84288333D01*
X111815476Y-84335952D01*
X111910714Y-84383571D01*
X112244048Y-84383571D01*
X111386905Y-83907381D02*
X110815476Y-83907381D01*
X111101191Y-84907381D02*
X111101191Y-83907381D01*
X109958333Y-84907381D02*
X110529762Y-84907381D01*
X110244048Y-84907381D02*
X110244048Y-83907381D01*
X110339286Y-84050238D01*
X110434524Y-84145476D01*
X110529762Y-84193095D01*
%LPC*%
D12*
X123825000Y-93980000D03*
D13*
X136625000Y-93980000D03*
X111025000Y-93980000D03*
M02*
