G04 #@! TF.FileFunction,Copper,L2,Bot,Signal*
%FSLAX46Y46*%
G04 Gerber Fmt 4.6, Leading zero omitted, Abs format (unit mm)*
G04 Created by KiCad (PCBNEW 4.0.5) date Sat Feb 25 16:09:27 2017*
%MOMM*%
%LPD*%
G01*
G04 APERTURE LIST*
%ADD10C,0.100000*%
%ADD11R,4.000000X4.000000*%
%ADD12R,5.500000X5.500000*%
%ADD13C,0.685800*%
%ADD14C,0.254000*%
G04 APERTURE END LIST*
D10*
D11*
X123825000Y-93980000D03*
D12*
X136625000Y-93980000D03*
X111025000Y-93980000D03*
D13*
X123825000Y-98425000D03*
X118745000Y-92075000D03*
X127000000Y-85090000D03*
D14*
X123825000Y-93980000D02*
X123825000Y-98425000D01*
G36*
X140260000Y-104700000D02*
X107390000Y-104700000D01*
X107390000Y-94265750D01*
X107640000Y-94265750D01*
X107640000Y-96856310D01*
X107736673Y-97089699D01*
X107915302Y-97268327D01*
X108148691Y-97365000D01*
X110739250Y-97365000D01*
X110898000Y-97206250D01*
X110898000Y-94107000D01*
X111152000Y-94107000D01*
X111152000Y-97206250D01*
X111310750Y-97365000D01*
X113901309Y-97365000D01*
X114134698Y-97268327D01*
X114313327Y-97089699D01*
X114410000Y-96856310D01*
X114410000Y-94265750D01*
X114251250Y-94107000D01*
X111152000Y-94107000D01*
X110898000Y-94107000D01*
X107798750Y-94107000D01*
X107640000Y-94265750D01*
X107390000Y-94265750D01*
X107390000Y-91103690D01*
X107640000Y-91103690D01*
X107640000Y-93694250D01*
X107798750Y-93853000D01*
X110898000Y-93853000D01*
X110898000Y-90753750D01*
X111152000Y-90753750D01*
X111152000Y-93853000D01*
X114251250Y-93853000D01*
X114410000Y-93694250D01*
X114410000Y-91980000D01*
X121177560Y-91980000D01*
X121177560Y-95980000D01*
X121221838Y-96215317D01*
X121360910Y-96431441D01*
X121573110Y-96576431D01*
X121825000Y-96627440D01*
X123063000Y-96627440D01*
X123063000Y-97803917D01*
X122996460Y-97870341D01*
X122847270Y-98229630D01*
X122846931Y-98618663D01*
X122995493Y-98978212D01*
X123270341Y-99253540D01*
X123629630Y-99402730D01*
X124018663Y-99403069D01*
X124378212Y-99254507D01*
X124653540Y-98979659D01*
X124802730Y-98620370D01*
X124803069Y-98231337D01*
X124654507Y-97871788D01*
X124587000Y-97804163D01*
X124587000Y-96627440D01*
X125825000Y-96627440D01*
X126060317Y-96583162D01*
X126276441Y-96444090D01*
X126421431Y-96231890D01*
X126472440Y-95980000D01*
X126472440Y-94265750D01*
X133240000Y-94265750D01*
X133240000Y-96856310D01*
X133336673Y-97089699D01*
X133515302Y-97268327D01*
X133748691Y-97365000D01*
X136339250Y-97365000D01*
X136498000Y-97206250D01*
X136498000Y-94107000D01*
X136752000Y-94107000D01*
X136752000Y-97206250D01*
X136910750Y-97365000D01*
X139501309Y-97365000D01*
X139734698Y-97268327D01*
X139913327Y-97089699D01*
X140010000Y-96856310D01*
X140010000Y-94265750D01*
X139851250Y-94107000D01*
X136752000Y-94107000D01*
X136498000Y-94107000D01*
X133398750Y-94107000D01*
X133240000Y-94265750D01*
X126472440Y-94265750D01*
X126472440Y-91980000D01*
X126428162Y-91744683D01*
X126289090Y-91528559D01*
X126076890Y-91383569D01*
X125825000Y-91332560D01*
X121825000Y-91332560D01*
X121589683Y-91376838D01*
X121373559Y-91515910D01*
X121228569Y-91728110D01*
X121177560Y-91980000D01*
X114410000Y-91980000D01*
X114410000Y-91103690D01*
X133240000Y-91103690D01*
X133240000Y-93694250D01*
X133398750Y-93853000D01*
X136498000Y-93853000D01*
X136498000Y-90753750D01*
X136752000Y-90753750D01*
X136752000Y-93853000D01*
X139851250Y-93853000D01*
X140010000Y-93694250D01*
X140010000Y-91103690D01*
X139913327Y-90870301D01*
X139734698Y-90691673D01*
X139501309Y-90595000D01*
X136910750Y-90595000D01*
X136752000Y-90753750D01*
X136498000Y-90753750D01*
X136339250Y-90595000D01*
X133748691Y-90595000D01*
X133515302Y-90691673D01*
X133336673Y-90870301D01*
X133240000Y-91103690D01*
X114410000Y-91103690D01*
X114313327Y-90870301D01*
X114134698Y-90691673D01*
X113901309Y-90595000D01*
X111310750Y-90595000D01*
X111152000Y-90753750D01*
X110898000Y-90753750D01*
X110739250Y-90595000D01*
X108148691Y-90595000D01*
X107915302Y-90691673D01*
X107736673Y-90870301D01*
X107640000Y-91103690D01*
X107390000Y-91103690D01*
X107390000Y-81990000D01*
X140260000Y-81990000D01*
X140260000Y-104700000D01*
X140260000Y-104700000D01*
G37*
X140260000Y-104700000D02*
X107390000Y-104700000D01*
X107390000Y-94265750D01*
X107640000Y-94265750D01*
X107640000Y-96856310D01*
X107736673Y-97089699D01*
X107915302Y-97268327D01*
X108148691Y-97365000D01*
X110739250Y-97365000D01*
X110898000Y-97206250D01*
X110898000Y-94107000D01*
X111152000Y-94107000D01*
X111152000Y-97206250D01*
X111310750Y-97365000D01*
X113901309Y-97365000D01*
X114134698Y-97268327D01*
X114313327Y-97089699D01*
X114410000Y-96856310D01*
X114410000Y-94265750D01*
X114251250Y-94107000D01*
X111152000Y-94107000D01*
X110898000Y-94107000D01*
X107798750Y-94107000D01*
X107640000Y-94265750D01*
X107390000Y-94265750D01*
X107390000Y-91103690D01*
X107640000Y-91103690D01*
X107640000Y-93694250D01*
X107798750Y-93853000D01*
X110898000Y-93853000D01*
X110898000Y-90753750D01*
X111152000Y-90753750D01*
X111152000Y-93853000D01*
X114251250Y-93853000D01*
X114410000Y-93694250D01*
X114410000Y-91980000D01*
X121177560Y-91980000D01*
X121177560Y-95980000D01*
X121221838Y-96215317D01*
X121360910Y-96431441D01*
X121573110Y-96576431D01*
X121825000Y-96627440D01*
X123063000Y-96627440D01*
X123063000Y-97803917D01*
X122996460Y-97870341D01*
X122847270Y-98229630D01*
X122846931Y-98618663D01*
X122995493Y-98978212D01*
X123270341Y-99253540D01*
X123629630Y-99402730D01*
X124018663Y-99403069D01*
X124378212Y-99254507D01*
X124653540Y-98979659D01*
X124802730Y-98620370D01*
X124803069Y-98231337D01*
X124654507Y-97871788D01*
X124587000Y-97804163D01*
X124587000Y-96627440D01*
X125825000Y-96627440D01*
X126060317Y-96583162D01*
X126276441Y-96444090D01*
X126421431Y-96231890D01*
X126472440Y-95980000D01*
X126472440Y-94265750D01*
X133240000Y-94265750D01*
X133240000Y-96856310D01*
X133336673Y-97089699D01*
X133515302Y-97268327D01*
X133748691Y-97365000D01*
X136339250Y-97365000D01*
X136498000Y-97206250D01*
X136498000Y-94107000D01*
X136752000Y-94107000D01*
X136752000Y-97206250D01*
X136910750Y-97365000D01*
X139501309Y-97365000D01*
X139734698Y-97268327D01*
X139913327Y-97089699D01*
X140010000Y-96856310D01*
X140010000Y-94265750D01*
X139851250Y-94107000D01*
X136752000Y-94107000D01*
X136498000Y-94107000D01*
X133398750Y-94107000D01*
X133240000Y-94265750D01*
X126472440Y-94265750D01*
X126472440Y-91980000D01*
X126428162Y-91744683D01*
X126289090Y-91528559D01*
X126076890Y-91383569D01*
X125825000Y-91332560D01*
X121825000Y-91332560D01*
X121589683Y-91376838D01*
X121373559Y-91515910D01*
X121228569Y-91728110D01*
X121177560Y-91980000D01*
X114410000Y-91980000D01*
X114410000Y-91103690D01*
X133240000Y-91103690D01*
X133240000Y-93694250D01*
X133398750Y-93853000D01*
X136498000Y-93853000D01*
X136498000Y-90753750D01*
X136752000Y-90753750D01*
X136752000Y-93853000D01*
X139851250Y-93853000D01*
X140010000Y-93694250D01*
X140010000Y-91103690D01*
X139913327Y-90870301D01*
X139734698Y-90691673D01*
X139501309Y-90595000D01*
X136910750Y-90595000D01*
X136752000Y-90753750D01*
X136498000Y-90753750D01*
X136339250Y-90595000D01*
X133748691Y-90595000D01*
X133515302Y-90691673D01*
X133336673Y-90870301D01*
X133240000Y-91103690D01*
X114410000Y-91103690D01*
X114313327Y-90870301D01*
X114134698Y-90691673D01*
X113901309Y-90595000D01*
X111310750Y-90595000D01*
X111152000Y-90753750D01*
X110898000Y-90753750D01*
X110739250Y-90595000D01*
X108148691Y-90595000D01*
X107915302Y-90691673D01*
X107736673Y-90870301D01*
X107640000Y-91103690D01*
X107390000Y-91103690D01*
X107390000Y-81990000D01*
X140260000Y-81990000D01*
X140260000Y-104700000D01*
M02*
