G04 #@! TF.FileFunction,Copper,L1,Top,Signal*
%FSLAX46Y46*%
G04 Gerber Fmt 4.6, Leading zero omitted, Abs format (unit mm)*
G04 Created by KiCad (PCBNEW 4.0.5) date Sat Feb 25 16:09:27 2017*
%MOMM*%
%LPD*%
G01*
G04 APERTURE LIST*
%ADD10C,0.100000*%
%ADD11R,1.600000X2.000000*%
%ADD12R,1.200000X1.200000*%
%ADD13R,1.300000X1.500000*%
%ADD14R,1.550000X0.600000*%
%ADD15C,0.685800*%
%ADD16C,0.254000*%
G04 APERTURE END LIST*
D10*
D11*
X132080000Y-97695000D03*
X132080000Y-101695000D03*
D12*
X116205000Y-98595000D03*
X116205000Y-100795000D03*
D13*
X132080000Y-85010000D03*
X132080000Y-87710000D03*
X132080000Y-91360000D03*
X132080000Y-94060000D03*
X116205000Y-91360000D03*
X116205000Y-94060000D03*
D14*
X121125000Y-86995000D03*
X121125000Y-88265000D03*
X121125000Y-89535000D03*
X121125000Y-90805000D03*
X126525000Y-90805000D03*
X126525000Y-89535000D03*
X126525000Y-88265000D03*
X126525000Y-86995000D03*
D15*
X123825000Y-98425000D03*
X118745000Y-92075000D03*
X127000000Y-85090000D03*
D16*
X126525000Y-89535000D02*
X127635000Y-89535000D01*
X130255000Y-94060000D02*
X132080000Y-94060000D01*
X129540000Y-93345000D02*
X130255000Y-94060000D01*
X129540000Y-91440000D02*
X129540000Y-93345000D01*
X127635000Y-89535000D02*
X129540000Y-91440000D01*
X121125000Y-88265000D02*
X122555000Y-88265000D01*
X123825000Y-89535000D02*
X126525000Y-89535000D01*
X122555000Y-88265000D02*
X123825000Y-89535000D01*
X132080000Y-94060000D02*
X132080000Y-97695000D01*
X116205000Y-94060000D02*
X116205000Y-98595000D01*
X121125000Y-90805000D02*
X120015000Y-90805000D01*
X120015000Y-90805000D02*
X118745000Y-92075000D01*
X126525000Y-86995000D02*
X126525000Y-85565000D01*
X126525000Y-85565000D02*
X127000000Y-85090000D01*
X126525000Y-86995000D02*
X128905000Y-86995000D01*
X130890000Y-85010000D02*
X132080000Y-85010000D01*
X128905000Y-86995000D02*
X130890000Y-85010000D01*
X126525000Y-88265000D02*
X129540000Y-88265000D01*
X130095000Y-87710000D02*
X132080000Y-87710000D01*
X129540000Y-88265000D02*
X130095000Y-87710000D01*
X132080000Y-87710000D02*
X132080000Y-91360000D01*
X121125000Y-89535000D02*
X118030000Y-89535000D01*
X118030000Y-89535000D02*
X116205000Y-91360000D01*
G36*
X140260000Y-104700000D02*
X107390000Y-104700000D01*
X107390000Y-101080750D01*
X114970000Y-101080750D01*
X114970000Y-101521309D01*
X115066673Y-101754698D01*
X115245301Y-101933327D01*
X115478690Y-102030000D01*
X115919250Y-102030000D01*
X116078000Y-101871250D01*
X116078000Y-100922000D01*
X116332000Y-100922000D01*
X116332000Y-101871250D01*
X116490750Y-102030000D01*
X116931310Y-102030000D01*
X117050209Y-101980750D01*
X130645000Y-101980750D01*
X130645000Y-102821309D01*
X130741673Y-103054698D01*
X130920301Y-103233327D01*
X131153690Y-103330000D01*
X131794250Y-103330000D01*
X131953000Y-103171250D01*
X131953000Y-101822000D01*
X132207000Y-101822000D01*
X132207000Y-103171250D01*
X132365750Y-103330000D01*
X133006310Y-103330000D01*
X133239699Y-103233327D01*
X133418327Y-103054698D01*
X133515000Y-102821309D01*
X133515000Y-101980750D01*
X133356250Y-101822000D01*
X132207000Y-101822000D01*
X131953000Y-101822000D01*
X130803750Y-101822000D01*
X130645000Y-101980750D01*
X117050209Y-101980750D01*
X117164699Y-101933327D01*
X117343327Y-101754698D01*
X117440000Y-101521309D01*
X117440000Y-101080750D01*
X117281250Y-100922000D01*
X116332000Y-100922000D01*
X116078000Y-100922000D01*
X115128750Y-100922000D01*
X114970000Y-101080750D01*
X107390000Y-101080750D01*
X107390000Y-90610000D01*
X114907560Y-90610000D01*
X114907560Y-92110000D01*
X114951838Y-92345317D01*
X115090910Y-92561441D01*
X115303110Y-92706431D01*
X115316197Y-92709081D01*
X115103559Y-92845910D01*
X114958569Y-93058110D01*
X114907560Y-93310000D01*
X114907560Y-94810000D01*
X114951838Y-95045317D01*
X115090910Y-95261441D01*
X115303110Y-95406431D01*
X115443000Y-95434759D01*
X115443000Y-97378042D01*
X115369683Y-97391838D01*
X115153559Y-97530910D01*
X115008569Y-97743110D01*
X114957560Y-97995000D01*
X114957560Y-99195000D01*
X115001838Y-99430317D01*
X115140910Y-99646441D01*
X115209006Y-99692969D01*
X115066673Y-99835302D01*
X114970000Y-100068691D01*
X114970000Y-100509250D01*
X115128750Y-100668000D01*
X116078000Y-100668000D01*
X116078000Y-100648000D01*
X116332000Y-100648000D01*
X116332000Y-100668000D01*
X117281250Y-100668000D01*
X117380559Y-100568691D01*
X130645000Y-100568691D01*
X130645000Y-101409250D01*
X130803750Y-101568000D01*
X131953000Y-101568000D01*
X131953000Y-100218750D01*
X132207000Y-100218750D01*
X132207000Y-101568000D01*
X133356250Y-101568000D01*
X133515000Y-101409250D01*
X133515000Y-100568691D01*
X133418327Y-100335302D01*
X133239699Y-100156673D01*
X133006310Y-100060000D01*
X132365750Y-100060000D01*
X132207000Y-100218750D01*
X131953000Y-100218750D01*
X131794250Y-100060000D01*
X131153690Y-100060000D01*
X130920301Y-100156673D01*
X130741673Y-100335302D01*
X130645000Y-100568691D01*
X117380559Y-100568691D01*
X117440000Y-100509250D01*
X117440000Y-100068691D01*
X117343327Y-99835302D01*
X117202090Y-99694064D01*
X117256441Y-99659090D01*
X117401431Y-99446890D01*
X117452440Y-99195000D01*
X117452440Y-97995000D01*
X117408162Y-97759683D01*
X117269090Y-97543559D01*
X117056890Y-97398569D01*
X116967000Y-97380366D01*
X116967000Y-95436366D01*
X117090317Y-95413162D01*
X117306441Y-95274090D01*
X117451431Y-95061890D01*
X117502440Y-94810000D01*
X117502440Y-93310000D01*
X117458162Y-93074683D01*
X117319090Y-92858559D01*
X117106890Y-92713569D01*
X117093803Y-92710919D01*
X117306441Y-92574090D01*
X117451431Y-92361890D01*
X117502440Y-92110000D01*
X117502440Y-91140190D01*
X118345631Y-90297000D01*
X119445369Y-90297000D01*
X118645357Y-91097013D01*
X118551337Y-91096931D01*
X118191788Y-91245493D01*
X117916460Y-91520341D01*
X117767270Y-91879630D01*
X117766931Y-92268663D01*
X117915493Y-92628212D01*
X118190341Y-92903540D01*
X118549630Y-93052730D01*
X118938663Y-93053069D01*
X119298212Y-92904507D01*
X119573540Y-92629659D01*
X119722730Y-92270370D01*
X119722813Y-92174817D01*
X120179681Y-91717950D01*
X120350000Y-91752440D01*
X121900000Y-91752440D01*
X122135317Y-91708162D01*
X122351441Y-91569090D01*
X122496431Y-91356890D01*
X122547440Y-91105000D01*
X122547440Y-91090750D01*
X125115000Y-91090750D01*
X125115000Y-91231310D01*
X125211673Y-91464699D01*
X125390302Y-91643327D01*
X125623691Y-91740000D01*
X126239250Y-91740000D01*
X126398000Y-91581250D01*
X126398000Y-90932000D01*
X125273750Y-90932000D01*
X125115000Y-91090750D01*
X122547440Y-91090750D01*
X122547440Y-90505000D01*
X122503162Y-90269683D01*
X122439322Y-90170472D01*
X122496431Y-90086890D01*
X122547440Y-89835000D01*
X122547440Y-89335070D01*
X123286184Y-90073815D01*
X123533395Y-90238996D01*
X123825000Y-90297000D01*
X125148837Y-90297000D01*
X125115000Y-90378690D01*
X125115000Y-90519250D01*
X125273750Y-90678000D01*
X126398000Y-90678000D01*
X126398000Y-90658000D01*
X126652000Y-90658000D01*
X126652000Y-90678000D01*
X126672000Y-90678000D01*
X126672000Y-90932000D01*
X126652000Y-90932000D01*
X126652000Y-91581250D01*
X126810750Y-91740000D01*
X127426309Y-91740000D01*
X127659698Y-91643327D01*
X127838327Y-91464699D01*
X127935000Y-91231310D01*
X127935000Y-91090750D01*
X127776252Y-90932002D01*
X127935000Y-90932002D01*
X127935000Y-90912630D01*
X128778000Y-91755630D01*
X128778000Y-93345000D01*
X128836004Y-93636605D01*
X129001185Y-93883815D01*
X129716185Y-94598816D01*
X129864377Y-94697834D01*
X129963395Y-94763996D01*
X130255000Y-94822000D01*
X130784818Y-94822000D01*
X130826838Y-95045317D01*
X130965910Y-95261441D01*
X131178110Y-95406431D01*
X131318000Y-95434759D01*
X131318000Y-96047560D01*
X131280000Y-96047560D01*
X131044683Y-96091838D01*
X130828559Y-96230910D01*
X130683569Y-96443110D01*
X130632560Y-96695000D01*
X130632560Y-98695000D01*
X130676838Y-98930317D01*
X130815910Y-99146441D01*
X131028110Y-99291431D01*
X131280000Y-99342440D01*
X132880000Y-99342440D01*
X133115317Y-99298162D01*
X133331441Y-99159090D01*
X133476431Y-98946890D01*
X133527440Y-98695000D01*
X133527440Y-96695000D01*
X133483162Y-96459683D01*
X133344090Y-96243559D01*
X133131890Y-96098569D01*
X132880000Y-96047560D01*
X132842000Y-96047560D01*
X132842000Y-95436366D01*
X132965317Y-95413162D01*
X133181441Y-95274090D01*
X133326431Y-95061890D01*
X133377440Y-94810000D01*
X133377440Y-93310000D01*
X133333162Y-93074683D01*
X133194090Y-92858559D01*
X132981890Y-92713569D01*
X132968803Y-92710919D01*
X133181441Y-92574090D01*
X133326431Y-92361890D01*
X133377440Y-92110000D01*
X133377440Y-90610000D01*
X133333162Y-90374683D01*
X133194090Y-90158559D01*
X132981890Y-90013569D01*
X132842000Y-89985241D01*
X132842000Y-89086366D01*
X132965317Y-89063162D01*
X133181441Y-88924090D01*
X133326431Y-88711890D01*
X133377440Y-88460000D01*
X133377440Y-86960000D01*
X133333162Y-86724683D01*
X133194090Y-86508559D01*
X132981890Y-86363569D01*
X132968803Y-86360919D01*
X133181441Y-86224090D01*
X133326431Y-86011890D01*
X133377440Y-85760000D01*
X133377440Y-84260000D01*
X133333162Y-84024683D01*
X133194090Y-83808559D01*
X132981890Y-83663569D01*
X132730000Y-83612560D01*
X131430000Y-83612560D01*
X131194683Y-83656838D01*
X130978559Y-83795910D01*
X130833569Y-84008110D01*
X130782560Y-84260000D01*
X130782560Y-84269371D01*
X130598395Y-84306004D01*
X130478667Y-84386004D01*
X130351185Y-84471185D01*
X128589370Y-86233000D01*
X127748636Y-86233000D01*
X127551890Y-86098569D01*
X127300000Y-86047560D01*
X127287000Y-86047560D01*
X127287000Y-86029503D01*
X127553212Y-85919507D01*
X127828540Y-85644659D01*
X127977730Y-85285370D01*
X127978069Y-84896337D01*
X127829507Y-84536788D01*
X127554659Y-84261460D01*
X127195370Y-84112270D01*
X126806337Y-84111931D01*
X126446788Y-84260493D01*
X126171460Y-84535341D01*
X126022270Y-84894630D01*
X126022187Y-84990183D01*
X125986185Y-85026185D01*
X125821004Y-85273395D01*
X125763000Y-85565000D01*
X125763000Y-86047560D01*
X125750000Y-86047560D01*
X125514683Y-86091838D01*
X125298559Y-86230910D01*
X125153569Y-86443110D01*
X125102560Y-86695000D01*
X125102560Y-87295000D01*
X125146838Y-87530317D01*
X125210678Y-87629528D01*
X125153569Y-87713110D01*
X125102560Y-87965000D01*
X125102560Y-88565000D01*
X125141698Y-88773000D01*
X124140631Y-88773000D01*
X123093815Y-87726185D01*
X123074247Y-87713110D01*
X122846605Y-87561004D01*
X122555000Y-87503000D01*
X122501163Y-87503000D01*
X122535000Y-87421310D01*
X122535000Y-87280750D01*
X122376250Y-87122000D01*
X121252000Y-87122000D01*
X121252000Y-87142000D01*
X120998000Y-87142000D01*
X120998000Y-87122000D01*
X119873750Y-87122000D01*
X119715000Y-87280750D01*
X119715000Y-87421310D01*
X119804806Y-87638122D01*
X119753569Y-87713110D01*
X119702560Y-87965000D01*
X119702560Y-88565000D01*
X119741698Y-88773000D01*
X118030000Y-88773000D01*
X117738395Y-88831004D01*
X117639377Y-88897166D01*
X117491185Y-88996184D01*
X116524810Y-89962560D01*
X115555000Y-89962560D01*
X115319683Y-90006838D01*
X115103559Y-90145910D01*
X114958569Y-90358110D01*
X114907560Y-90610000D01*
X107390000Y-90610000D01*
X107390000Y-86568690D01*
X119715000Y-86568690D01*
X119715000Y-86709250D01*
X119873750Y-86868000D01*
X120998000Y-86868000D01*
X120998000Y-86218750D01*
X121252000Y-86218750D01*
X121252000Y-86868000D01*
X122376250Y-86868000D01*
X122535000Y-86709250D01*
X122535000Y-86568690D01*
X122438327Y-86335301D01*
X122259698Y-86156673D01*
X122026309Y-86060000D01*
X121410750Y-86060000D01*
X121252000Y-86218750D01*
X120998000Y-86218750D01*
X120839250Y-86060000D01*
X120223691Y-86060000D01*
X119990302Y-86156673D01*
X119811673Y-86335301D01*
X119715000Y-86568690D01*
X107390000Y-86568690D01*
X107390000Y-81990000D01*
X140260000Y-81990000D01*
X140260000Y-104700000D01*
X140260000Y-104700000D01*
G37*
X140260000Y-104700000D02*
X107390000Y-104700000D01*
X107390000Y-101080750D01*
X114970000Y-101080750D01*
X114970000Y-101521309D01*
X115066673Y-101754698D01*
X115245301Y-101933327D01*
X115478690Y-102030000D01*
X115919250Y-102030000D01*
X116078000Y-101871250D01*
X116078000Y-100922000D01*
X116332000Y-100922000D01*
X116332000Y-101871250D01*
X116490750Y-102030000D01*
X116931310Y-102030000D01*
X117050209Y-101980750D01*
X130645000Y-101980750D01*
X130645000Y-102821309D01*
X130741673Y-103054698D01*
X130920301Y-103233327D01*
X131153690Y-103330000D01*
X131794250Y-103330000D01*
X131953000Y-103171250D01*
X131953000Y-101822000D01*
X132207000Y-101822000D01*
X132207000Y-103171250D01*
X132365750Y-103330000D01*
X133006310Y-103330000D01*
X133239699Y-103233327D01*
X133418327Y-103054698D01*
X133515000Y-102821309D01*
X133515000Y-101980750D01*
X133356250Y-101822000D01*
X132207000Y-101822000D01*
X131953000Y-101822000D01*
X130803750Y-101822000D01*
X130645000Y-101980750D01*
X117050209Y-101980750D01*
X117164699Y-101933327D01*
X117343327Y-101754698D01*
X117440000Y-101521309D01*
X117440000Y-101080750D01*
X117281250Y-100922000D01*
X116332000Y-100922000D01*
X116078000Y-100922000D01*
X115128750Y-100922000D01*
X114970000Y-101080750D01*
X107390000Y-101080750D01*
X107390000Y-90610000D01*
X114907560Y-90610000D01*
X114907560Y-92110000D01*
X114951838Y-92345317D01*
X115090910Y-92561441D01*
X115303110Y-92706431D01*
X115316197Y-92709081D01*
X115103559Y-92845910D01*
X114958569Y-93058110D01*
X114907560Y-93310000D01*
X114907560Y-94810000D01*
X114951838Y-95045317D01*
X115090910Y-95261441D01*
X115303110Y-95406431D01*
X115443000Y-95434759D01*
X115443000Y-97378042D01*
X115369683Y-97391838D01*
X115153559Y-97530910D01*
X115008569Y-97743110D01*
X114957560Y-97995000D01*
X114957560Y-99195000D01*
X115001838Y-99430317D01*
X115140910Y-99646441D01*
X115209006Y-99692969D01*
X115066673Y-99835302D01*
X114970000Y-100068691D01*
X114970000Y-100509250D01*
X115128750Y-100668000D01*
X116078000Y-100668000D01*
X116078000Y-100648000D01*
X116332000Y-100648000D01*
X116332000Y-100668000D01*
X117281250Y-100668000D01*
X117380559Y-100568691D01*
X130645000Y-100568691D01*
X130645000Y-101409250D01*
X130803750Y-101568000D01*
X131953000Y-101568000D01*
X131953000Y-100218750D01*
X132207000Y-100218750D01*
X132207000Y-101568000D01*
X133356250Y-101568000D01*
X133515000Y-101409250D01*
X133515000Y-100568691D01*
X133418327Y-100335302D01*
X133239699Y-100156673D01*
X133006310Y-100060000D01*
X132365750Y-100060000D01*
X132207000Y-100218750D01*
X131953000Y-100218750D01*
X131794250Y-100060000D01*
X131153690Y-100060000D01*
X130920301Y-100156673D01*
X130741673Y-100335302D01*
X130645000Y-100568691D01*
X117380559Y-100568691D01*
X117440000Y-100509250D01*
X117440000Y-100068691D01*
X117343327Y-99835302D01*
X117202090Y-99694064D01*
X117256441Y-99659090D01*
X117401431Y-99446890D01*
X117452440Y-99195000D01*
X117452440Y-97995000D01*
X117408162Y-97759683D01*
X117269090Y-97543559D01*
X117056890Y-97398569D01*
X116967000Y-97380366D01*
X116967000Y-95436366D01*
X117090317Y-95413162D01*
X117306441Y-95274090D01*
X117451431Y-95061890D01*
X117502440Y-94810000D01*
X117502440Y-93310000D01*
X117458162Y-93074683D01*
X117319090Y-92858559D01*
X117106890Y-92713569D01*
X117093803Y-92710919D01*
X117306441Y-92574090D01*
X117451431Y-92361890D01*
X117502440Y-92110000D01*
X117502440Y-91140190D01*
X118345631Y-90297000D01*
X119445369Y-90297000D01*
X118645357Y-91097013D01*
X118551337Y-91096931D01*
X118191788Y-91245493D01*
X117916460Y-91520341D01*
X117767270Y-91879630D01*
X117766931Y-92268663D01*
X117915493Y-92628212D01*
X118190341Y-92903540D01*
X118549630Y-93052730D01*
X118938663Y-93053069D01*
X119298212Y-92904507D01*
X119573540Y-92629659D01*
X119722730Y-92270370D01*
X119722813Y-92174817D01*
X120179681Y-91717950D01*
X120350000Y-91752440D01*
X121900000Y-91752440D01*
X122135317Y-91708162D01*
X122351441Y-91569090D01*
X122496431Y-91356890D01*
X122547440Y-91105000D01*
X122547440Y-91090750D01*
X125115000Y-91090750D01*
X125115000Y-91231310D01*
X125211673Y-91464699D01*
X125390302Y-91643327D01*
X125623691Y-91740000D01*
X126239250Y-91740000D01*
X126398000Y-91581250D01*
X126398000Y-90932000D01*
X125273750Y-90932000D01*
X125115000Y-91090750D01*
X122547440Y-91090750D01*
X122547440Y-90505000D01*
X122503162Y-90269683D01*
X122439322Y-90170472D01*
X122496431Y-90086890D01*
X122547440Y-89835000D01*
X122547440Y-89335070D01*
X123286184Y-90073815D01*
X123533395Y-90238996D01*
X123825000Y-90297000D01*
X125148837Y-90297000D01*
X125115000Y-90378690D01*
X125115000Y-90519250D01*
X125273750Y-90678000D01*
X126398000Y-90678000D01*
X126398000Y-90658000D01*
X126652000Y-90658000D01*
X126652000Y-90678000D01*
X126672000Y-90678000D01*
X126672000Y-90932000D01*
X126652000Y-90932000D01*
X126652000Y-91581250D01*
X126810750Y-91740000D01*
X127426309Y-91740000D01*
X127659698Y-91643327D01*
X127838327Y-91464699D01*
X127935000Y-91231310D01*
X127935000Y-91090750D01*
X127776252Y-90932002D01*
X127935000Y-90932002D01*
X127935000Y-90912630D01*
X128778000Y-91755630D01*
X128778000Y-93345000D01*
X128836004Y-93636605D01*
X129001185Y-93883815D01*
X129716185Y-94598816D01*
X129864377Y-94697834D01*
X129963395Y-94763996D01*
X130255000Y-94822000D01*
X130784818Y-94822000D01*
X130826838Y-95045317D01*
X130965910Y-95261441D01*
X131178110Y-95406431D01*
X131318000Y-95434759D01*
X131318000Y-96047560D01*
X131280000Y-96047560D01*
X131044683Y-96091838D01*
X130828559Y-96230910D01*
X130683569Y-96443110D01*
X130632560Y-96695000D01*
X130632560Y-98695000D01*
X130676838Y-98930317D01*
X130815910Y-99146441D01*
X131028110Y-99291431D01*
X131280000Y-99342440D01*
X132880000Y-99342440D01*
X133115317Y-99298162D01*
X133331441Y-99159090D01*
X133476431Y-98946890D01*
X133527440Y-98695000D01*
X133527440Y-96695000D01*
X133483162Y-96459683D01*
X133344090Y-96243559D01*
X133131890Y-96098569D01*
X132880000Y-96047560D01*
X132842000Y-96047560D01*
X132842000Y-95436366D01*
X132965317Y-95413162D01*
X133181441Y-95274090D01*
X133326431Y-95061890D01*
X133377440Y-94810000D01*
X133377440Y-93310000D01*
X133333162Y-93074683D01*
X133194090Y-92858559D01*
X132981890Y-92713569D01*
X132968803Y-92710919D01*
X133181441Y-92574090D01*
X133326431Y-92361890D01*
X133377440Y-92110000D01*
X133377440Y-90610000D01*
X133333162Y-90374683D01*
X133194090Y-90158559D01*
X132981890Y-90013569D01*
X132842000Y-89985241D01*
X132842000Y-89086366D01*
X132965317Y-89063162D01*
X133181441Y-88924090D01*
X133326431Y-88711890D01*
X133377440Y-88460000D01*
X133377440Y-86960000D01*
X133333162Y-86724683D01*
X133194090Y-86508559D01*
X132981890Y-86363569D01*
X132968803Y-86360919D01*
X133181441Y-86224090D01*
X133326431Y-86011890D01*
X133377440Y-85760000D01*
X133377440Y-84260000D01*
X133333162Y-84024683D01*
X133194090Y-83808559D01*
X132981890Y-83663569D01*
X132730000Y-83612560D01*
X131430000Y-83612560D01*
X131194683Y-83656838D01*
X130978559Y-83795910D01*
X130833569Y-84008110D01*
X130782560Y-84260000D01*
X130782560Y-84269371D01*
X130598395Y-84306004D01*
X130478667Y-84386004D01*
X130351185Y-84471185D01*
X128589370Y-86233000D01*
X127748636Y-86233000D01*
X127551890Y-86098569D01*
X127300000Y-86047560D01*
X127287000Y-86047560D01*
X127287000Y-86029503D01*
X127553212Y-85919507D01*
X127828540Y-85644659D01*
X127977730Y-85285370D01*
X127978069Y-84896337D01*
X127829507Y-84536788D01*
X127554659Y-84261460D01*
X127195370Y-84112270D01*
X126806337Y-84111931D01*
X126446788Y-84260493D01*
X126171460Y-84535341D01*
X126022270Y-84894630D01*
X126022187Y-84990183D01*
X125986185Y-85026185D01*
X125821004Y-85273395D01*
X125763000Y-85565000D01*
X125763000Y-86047560D01*
X125750000Y-86047560D01*
X125514683Y-86091838D01*
X125298559Y-86230910D01*
X125153569Y-86443110D01*
X125102560Y-86695000D01*
X125102560Y-87295000D01*
X125146838Y-87530317D01*
X125210678Y-87629528D01*
X125153569Y-87713110D01*
X125102560Y-87965000D01*
X125102560Y-88565000D01*
X125141698Y-88773000D01*
X124140631Y-88773000D01*
X123093815Y-87726185D01*
X123074247Y-87713110D01*
X122846605Y-87561004D01*
X122555000Y-87503000D01*
X122501163Y-87503000D01*
X122535000Y-87421310D01*
X122535000Y-87280750D01*
X122376250Y-87122000D01*
X121252000Y-87122000D01*
X121252000Y-87142000D01*
X120998000Y-87142000D01*
X120998000Y-87122000D01*
X119873750Y-87122000D01*
X119715000Y-87280750D01*
X119715000Y-87421310D01*
X119804806Y-87638122D01*
X119753569Y-87713110D01*
X119702560Y-87965000D01*
X119702560Y-88565000D01*
X119741698Y-88773000D01*
X118030000Y-88773000D01*
X117738395Y-88831004D01*
X117639377Y-88897166D01*
X117491185Y-88996184D01*
X116524810Y-89962560D01*
X115555000Y-89962560D01*
X115319683Y-90006838D01*
X115103559Y-90145910D01*
X114958569Y-90358110D01*
X114907560Y-90610000D01*
X107390000Y-90610000D01*
X107390000Y-86568690D01*
X119715000Y-86568690D01*
X119715000Y-86709250D01*
X119873750Y-86868000D01*
X120998000Y-86868000D01*
X120998000Y-86218750D01*
X121252000Y-86218750D01*
X121252000Y-86868000D01*
X122376250Y-86868000D01*
X122535000Y-86709250D01*
X122535000Y-86568690D01*
X122438327Y-86335301D01*
X122259698Y-86156673D01*
X122026309Y-86060000D01*
X121410750Y-86060000D01*
X121252000Y-86218750D01*
X120998000Y-86218750D01*
X120839250Y-86060000D01*
X120223691Y-86060000D01*
X119990302Y-86156673D01*
X119811673Y-86335301D01*
X119715000Y-86568690D01*
X107390000Y-86568690D01*
X107390000Y-81990000D01*
X140260000Y-81990000D01*
X140260000Y-104700000D01*
M02*
